# xmcd
#
# Track frame offsets:
# 151
# 19638
# 36087
# 49230
# 62849
# 79916
# 98563
# 111558
# 126919
# 143940
# 168315
# 180184
# 193885
# 207650
# 219145
# 242004
#
# Disc length: 3401 seconds
#
#
# Revision: 0
# Processed by: cddbd v1.5.1PL2 Copyright (c) Steve Scherf et al.
# Submitted via: FreeRIP 2.943 
#
DISCID=e40d4710
DTITLE=Teddy Edelmann 16 gyldne hits vol. 2 - 16 gyldne hits vol. 2
DYEAR=1900
DGENRE=Country
TTITLE0=Himmelhunden
TTITLE1=Bare en dreng
TTITLE2=Jeg vil bo på Vesterbro
TTITLE3=Livets tombola
TTITLE4=Cool water
TTITLE5=Jeg er dårlig til at huske
TTITLE6=18 hjul
TTITLE7=Cafeen
TTITLE8=Ikke flere penge, fyret fra mit job
TTITLE9=Ungerne venter derhjemme
TTITLE10=Den mørke landevej
TTITLE11=Op at køre
TTITLE12=Ingen bryder livets cirkel
TTITLE13=Ring of fire
TTITLE14=Søndag morgen
TTITLE15=Hvis du gi'r en omgang
EXTD=
EXTT0=
EXTT1=
EXTT2=
EXTT3=
EXTT4=
EXTT5=
EXTT6=
EXTT7=
EXTT8=
EXTT9=
EXTT10=
EXTT11=
EXTT12=
EXTT13=
EXTT14=
EXTT15=
PLAYORDER=
